Coordinates
version=1
nRows=17
nColumns=38
inDegrees=no

Units are S.I. units (second, meters, Newtons, ...)
If the header above contains a line with 'inDegrees', this indicates whether rotational values are in degrees (yes) or radians (no).

endheader
time	pelvis_tilt	pelvis_list	pelvis_rotation	pelvis_tx	pelvis_ty	pelvis_tz	hip_flexion_r	hip_adduction_r	hip_rotation_r	knee_angle_r	ankle_angle_r	subtalar_angle_r	mtp_angle_r	hip_flexion_l	hip_adduction_l	hip_rotation_l	knee_angle_l	ankle_angle_l	subtalar_angle_l	mtp_angle_l	lumbar_extension	lumbar_bending	lumbar_rotation	arm_flex_r	arm_add_r	arm_rot_r	elbow_flex_r	pro_sup_r	wrist_flex_r	wrist_dev_r	arm_flex_l	arm_add_l	arm_rot_l	elbow_flex_l	pro_sup_l	wrist_flex_l	wrist_dev_l
0.44	-1.32979	1.5284	-0.300982	0.75012	0.228308	1.01397	-0.265685	0.12033	0.0877324	0	-0.105045	0	0	0.474959	-0.193979	-0.483467	0.749504	0.00992272	0	0	-0.173455	0.127103	0.242352	-0.196412	-0.279831	0.480049	0.319342	0.794697	0	0	0.0393156	-0.355973	1.2312	0.38556	0.931752	0	0
0.45	-1.20977	1.52768	-0.429943	0.748982	0.217048	1.01255	-0.282817	0.116024	0.0846256	0	-0.106297	0	0	0.467746	-0.195893	-0.508118	0.735519	0.0207716	0	0	-0.178838	0.121315	0.250231	-0.196392	-0.27819	0.480807	0.320744	0.793703	0	0	0.0352413	-0.350942	1.22463	0.377521	0.937775	0	0
0.46	-1.0586	1.52646	-0.590806	0.747652	0.205767	1.01132	-0.300211	0.110473	0.0822013	0	-0.10729	0	0	0.458406	-0.195984	-0.527426	0.72333	0.0301107	0	0	-0.186145	0.113725	0.258902	-0.195539	-0.27568	0.481934	0.321641	0.79169	0	0	0.0322362	-0.3466	1.21564	0.369443	0.946367	0	0
0.47	-0.911486	1.52445	-0.747595	0.746301	0.194484	1.01023	-0.314652	0.104426	0.0786193	0.0096389	-0.105554	0	0	0.449084	-0.1947	-0.540207	0.713853	0.0354467	0	0	-0.193596	0.105306	0.267312	-0.194026	-0.272502	0.483237	0.322013	0.788343	0	0	0.0298282	-0.343063	1.2055	0.361596	0.956595	0	0
0.48	-0.781604	1.52175	-0.88679	0.74502	0.183075	1.00928	-0.326705	0.0980434	0.0739961	0.0252755	-0.100217	0	0	0.440796	-0.192606	-0.547719	0.709255	0.0373846	0	0	-0.200257	0.0966834	0.27517	-0.192245	-0.26872	0.484953	0.321441	0.78393	0	0	0.0277697	-0.339615	1.19534	0.35283	0.966525	0	0
0.49	-0.658883	1.51824	-1.01884	0.743873	0.171426	1.00855	-0.337329	0.090585	0.0678212	0.0451543	-0.0929494	0	0	0.431991	-0.189642	-0.552385	0.709007	0.0368691	0	0	-0.20665	0.0877439	0.283281	-0.190672	-0.264562	0.487226	0.319982	0.77827	0	0	0.0261451	-0.335835	1.18512	0.342883	0.974879	0	0
0.5	-0.608828	1.51509	-1.07802	0.742732	0.159465	1.00753	-0.343347	0.085142	0.0614134	0.0689989	-0.0853047	0	0	0.426801	-0.189193	-0.552011	0.716053	0.0361039	0	0	-0.20942	0.0814544	0.292277	-0.191224	-0.260756	0.489458	0.319602	0.771795	0	0	0.0243028	-0.332625	1.17547	0.333629	0.981483	0	0
0.51	-0.570869	1.51245	-1.12399	0.741664	0.14731	1.00656	-0.346633	0.0796459	0.054597	0.0971885	-0.0769766	0	0	0.421769	-0.186878	-0.545025	0.724281	0.0339117	0	0	-0.210686	0.075492	0.300413	-0.192306	-0.256571	0.49193	0.31889	0.76484	0	0	0.0229071	-0.330061	1.16707	0.324414	0.986367	0	0
0.52	-0.544794	1.51047	-1.15719	0.740678	0.134934	1.00564	-0.346711	0.0744248	0.0481612	0.129257	-0.0692519	0	0	0.416964	-0.183232	-0.532079	0.733461	0.0284575	0	0	-0.210319	0.0700045	0.307769	-0.193533	-0.252058	0.495082	0.317312	0.757666	0	0	0.0217547	-0.327876	1.15974	0.314965	0.989309	0	0
0.53	-0.526856	1.50983	-1.1819	0.739808	0.12221	1.00472	-0.34226	0.0683208	0.0410881	0.16926	-0.0592258	0	0	0.412338	-0.178376	-0.515369	0.742989	0.020401	0	0	-0.207276	0.0647826	0.314284	-0.194886	-0.247381	0.500269	0.314435	0.749173	0	0	0.0198989	-0.325943	1.15207	0.305264	0.990825	0	0
0.54	-0.520061	1.51005	-1.1948	0.739043	0.109112	1.00378	-0.332717	0.0619719	0.0340623	0.218746	-0.0488031	0	0	0.407512	-0.173106	-0.496493	0.752517	0.0129294	0	0	-0.201843	0.0603797	0.319248	-0.196728	-0.242686	0.506242	0.310812	0.741281	0	0	0.0170138	-0.325148	1.14477	0.297001	0.990361	0	0
0.55	-0.52899	1.51252	-1.19109	0.738408	0.0957214	1.00266	-0.312556	0.0551541	0.0250096	0.287093	-0.0318561	0	0	0.40406	-0.167589	-0.47859	0.760458	0.00773298	0	0	-0.192411	0.056551	0.321947	-0.198694	-0.237904	0.514435	0.305753	0.733543	0	0	0.0125661	-0.325545	1.1368	0.290062	0.990073	0	0
0.56	-0.523708	1.51684	-1.20023	0.737925	0.0820864	1.00152	-0.289197	0.0467982	0.0180614	0.357149	-0.0185399	0	0	0.400816	-0.162019	-0.470188	0.765003	0.00250687	0	0	-0.180364	0.0515407	0.321644	-0.200661	-0.232716	0.522503	0.299825	0.727556	0	0	0.00682756	-0.327687	1.12735	0.285283	0.989789	0	0
0.57	-0.462222	1.52271	-1.26349	0.737738	0.0683877	1.00057	-0.263274	0.0353207	0.0117608	0.428574	-0.0123077	0	0	0.398626	-0.156494	-0.475801	0.767074	-0.0115925	0	0	-0.167217	0.0434334	0.317706	-0.202128	-0.227029	0.529651	0.293468	0.722535	0	0	0.000582961	-0.331121	1.11509	0.281938	0.988915	0	0
0.58	-0.347784	1.5305	-1.37617	0.737905	0.054782	0.999761	-0.235077	0.0225264	0.00580238	0.496338	-0.0172589	0	0	0.401132	-0.15081	-0.482513	0.769857	-0.0377785	0	0	-0.152018	0.0333888	0.309598	-0.203322	-0.220948	0.535149	0.28739	0.718107	0	0	-0.00562932	-0.335626	1.09919	0.279901	0.985311	0	0
0.59	-0.209178	1.54088	-1.50823	0.738487	0.0414046	0.998891	-0.201606	0.0116957	0.00196573	0.563626	-0.0334195	0	0	0.40978	-0.14237	-0.46844	0.772879	-0.0635853	0	0	-0.133473	0.0243647	0.297379	-0.205037	-0.21502	0.538456	0.282421	0.714045	0	0	-0.0112518	-0.340736	1.08178	0.278647	0.978493	0	0
0.6	0.0565228	1.55348	-1.76323	0.739505	0.0281898	0.997907	-0.161858	0.00216515	-0.0015624	0.63256	-0.0609114	0	0	0.422695	-0.129357	-0.438049	0.776382	-0.0772511	0	0	-0.111244	0.0165842	0.281341	-0.207309	-0.209533	0.541149	0.277864	0.710409	0	0	-0.0168578	-0.346236	1.06538	0.277774	0.97256	0	0
